<svg width="25" height="20" viewBox="0 0 25 20" fill="none" xmlns="http://www.w3.org/2000/svg">
<path d="M8.21666 19.7497C17.271 19.7497 22.2248 12.2465 22.2248 5.74162C22.2248 5.53068 22.2201 5.31505 22.2107 5.10412C23.1744 4.40722 24.006 3.54401 24.6665 2.55505C23.769 2.95436 22.8161 3.21514 21.8404 3.32849C22.8678 2.71266 23.637 1.74523 24.0056 0.605523C23.0391 1.17831 21.9821 1.58237 20.8799 1.80037C20.1373 1.01132 19.1555 0.488872 18.0862 0.313807C17.0169 0.138742 15.9197 0.320806 14.9642 0.831852C14.0088 1.3429 13.2483 2.15446 12.8004 3.14107C12.3524 4.12767 12.2419 5.23437 12.486 6.29005C10.529 6.19185 8.61444 5.68346 6.86649 4.79785C5.11853 3.91225 3.5762 2.66919 2.33947 1.14927C1.7109 2.233 1.51856 3.5154 1.80153 4.73585C2.08451 5.95629 2.82157 7.0232 3.86291 7.71974C3.08113 7.69492 2.31648 7.48444 1.63213 7.10568V7.16662C1.63143 8.30391 2.0246 9.40634 2.74481 10.2865C3.46503 11.1667 4.46783 11.7703 5.58275 11.9947C4.85856 12.1929 4.09849 12.2218 3.36135 12.0791C3.67596 13.0572 4.28808 13.9126 5.11227 14.5261C5.93647 15.1395 6.93162 15.4804 7.95885 15.501C6.21493 16.8709 4.06068 17.6139 1.84307 17.6104C1.44979 17.6098 1.0569 17.5857 0.666504 17.5382C2.91936 18.9835 5.54004 19.7511 8.21666 19.7497Z" fill="white"/>
</svg>
