<svg version="1.1" xmlns="http://www.w3.org/2000/svg" xmlns:xlink="http://www.w3.org/1999/xlink" width="23" height="16" viewBox="0,0,256,178.08334"><g fill="#1e1b1b" fill-rule="nonzero" stroke="none" stroke-width="1" stroke-linecap="butt" stroke-linejoin="miter" stroke-miterlimit="10" stroke-dasharray="" stroke-dashoffset="0" font-family="none" font-weight="none" font-size="none" text-anchor="none" style="mix-blend-mode: normal"><g transform="translate(252.89085,178.08522) rotate(180) scale(11.13043,11.13043)"><path d="M21.2852,9c0.5522,0 1,-0.44772 1,-1c0,-0.55228 -0.4478,-1 -1,-1zM0.44902,7.29289c-0.39052,0.39053 -0.39052,1.02369 0,1.41421l6.36396,6.364c0.39052,0.3905 1.02369,0.3905 1.41421,0c0.39053,-0.3906 0.39053,-1.0237 0,-1.4142l-5.65685,-5.6569l5.65685,-5.65686c0.39053,-0.39052 0.39053,-1.02368 0,-1.41421c-0.39052,-0.39052 -1.02369,-0.39052 -1.41421,0zM21.2852,7h-20.12908v2h20.12908z"></path></g></g></svg>